<?xml version="1.0" encoding="UTF-8"?>
<!DOCTYPE svg PUBLIC "-//W3C//DTD SVG 1.1//EN" "http://www.w3.org/Graphics/SVG/1.1/DTD/svg11.dtd">
<!-- Creator: CorelDRAW X7 -->
<svg xmlns="http://www.w3.org/2000/svg" xml:space="preserve" width="42.8612mm" height="43.0136mm" version="1.1" style="shape-rendering:geometricPrecision; text-rendering:geometricPrecision; image-rendering:optimizeQuality; fill-rule:evenodd; clip-rule:evenodd"
viewBox="0 0 43 43"
 xmlns:xlink="http://www.w3.org/1999/xlink">
 <defs>
  <style type="text/css">
   <![CDATA[
    .fil0 {fill:#F58634}
   ]]>
  </style>
 </defs>
 <g id="Camada_x0020_1">
  <metadata id="CorelCorpID_0Corel-Layer"/>
  <path class="fil0" d="M11 14c1,-2 2,-3 4,-3 1,1 1,2 2,4 0,0 1,1 1,2 0,0 0,0 0,1 -1,0 -1,0 -1,0 0,1 0,1 0,1 -1,0 0,0 -1,0 0,0 0,0 0,1 0,1 2,2 3,3 0,1 0,1 0,1 1,0 0,0 1,0 1,1 3,2 4,3 1,-1 1,-1 1,-1 1,-2 2,-3 3,-2 0,0 4,2 4,2 0,1 0,2 0,3 0,1 -1,2 -2,2 0,0 -1,0 -2,0 -1,1 -2,1 -2,0 -1,0 -2,0 -2,0 -2,0 -7,-3 -7,-4 0,0 0,0 0,-1 -1,0 -1,0 -1,0 0,0 0,0 0,0 -1,-1 -3,-4 -4,-5 -1,-3 -2,-4 -1,-7zm2 -12c0,0 -1,0 -2,1 -1,0 -1,1 -2,1 0,0 0,0 0,0 -1,1 0,1 -1,1 0,0 0,0 0,0l-1 1 -1 0c0,1 -1,2 -1,2 0,0 -1,1 -1,1 0,0 -1,1 -1,2l-1 1c0,0 0,1 0,1 0,0 -1,2 -1,3 -2,7 0,11 0,12l1 1c0,0 0,0 0,1 0,0 0,1 1,1 0,1 0,1 0,2 -1,1 -1,3 -1,4l-1 1 -1 5 0 0 5 -1 1 -1c1,0 3,0 4,-1 1,0 1,0 2,0 0,0 1,1 1,1 1,0 2,0 2,1 1,0 3,1 8,1 1,0 2,-1 3,-1 0,0 0,0 1,0 0,0 1,0 1,0l2 -1 4 -2c0,-1 0,0 0,-1 1,0 1,0 1,0 0,-1 1,-1 1,-1l1 -1c0,0 1,-1 1,-1 0,-1 0,0 1,-1 0,0 0,0 0,0 0,0 0,0 0,0 0,-1 1,-1 1,-2 0,0 0,-1 0,-1 1,0 1,-1 1,-1 0,0 1,-2 1,-3 0,-1 1,-3 1,-4 0,-3 0,-6 -1,-8l-1 -2c0,-1 -1,-2 -2,-3 -1,-2 -2,-3 -3,-5 0,0 -1,0 -1,0 -3,-3 -3,-2 -5,-3l-2 -1c-2,-1 -6,-1 -8,-1 -1,0 -2,0 -4,1 -1,0 -2,1 -3,1z"/>
 </g>
</svg>
